<svg
  width="256"
  height="256"
  viewBox="0 0 256 256"
  fill="none"
  xmlns="http://www.w3.org/2000/svg"
>
  <!-- フォルダ タブ -->
  <path
    d="M16 56 L16 42 Q16 30 28 30 L88 30 Q98 30 104 42 L112 56"
    fill="url(#folderGrad)"
  />

  <!-- フォルダ 本体 -->
  <rect x="16" y="56" width="224" height="170" rx="12" ry="12" fill="url(#folderGrad)" />

  <!-- フォルダ 上部の光沢ライン -->
  <rect x="16" y="56" width="224" height="6" rx="3" fill="white" opacity="0.2" />

  <!-- フォルダ 下部の微妙な影 -->
  <rect x="20" y="218" width="216" height="8" rx="4" fill="#0050A0" opacity="0.4" />

  <!-- 稲妻 - ソフトシャドウ -->
  <path
    d="M118 46 L158 46 L132 110 L166 110 L104 228 L120 156 L90 156 Z"
    fill="#0050A0"
    opacity="0.3"
    transform="translate(3, 3)"
  />

  <!-- 稲妻 - メイン -->
  <path
    d="M118 46 L158 46 L132 110 L166 110 L104 228 L120 156 L90 156 Z"
    fill="white"
  />

  <defs>
    <!-- フォルダ - 青グラデーション -->
    <linearGradient id="folderGrad" x1="0%" y1="0%" x2="0%" y2="100%">
      <stop offset="0%" stop-color="#2BA4F5" />
      <stop offset="100%" stop-color="#0074D4" />
    </linearGradient>
  </defs>
</svg>
